<svg style="object-fit:cover" id="my-svg" version="1" baseProfile="full" width="100%" height="100%" viewBox="0 0 1536 754" xmlns="http://www.w3.org/2000/svg"><rect width="1536" height="754" fill="#000"/><defs><linearGradient id="linear-gradient" x1="1" x2="0" y1="0.5" y2="0.5"><stop offset="0%" stop-color="#c81d1170"/><stop offset="100%" stop-color="#1c39bb70"/></linearGradient></defs><path transform="scale(1, 1)" d="M 0,754 V 0,301 C 144.35714285714283,254.96428571428572 288.71428571428567,208.92857142857142 426,215 C 563.2857142857143,221.07142857142858 693.5,279.25000000000006 818,293 C 942.5,306.74999999999994 1061.2857142857142,276.07142857142856 1180,270 C 1298.7142857142858,263.92857142857144 1417.357142857143,282.4642857142857 1536,301 C 1536,301 1536,754 1536,754 Z" stroke="none" stroke-width="0" fill="url(#linear-gradient)" class="transition-all duration-300 ease-in-out delay-150" style="transform-origin: center center;"/><defs><linearGradient id="linear-gradient" x1="1" x2="0" y1="0.5" y2="0.5"><stop offset="0%" stop-color="#c81d1180"/><stop offset="100%" stop-color="#1c39bb80"/></linearGradient></defs><path transform="scale(1, 1)" d="M 0,754 V 0,452 C 123.53571428571428,454.92857142857144 247.07142857142856,457.85714285714283 382,438 C 516.9285714285714,418.14285714285717 663.25,375.50000000000006 779,386 C 894.75,396.49999999999994 979.9285714285713,460.1428571428571 1101,480 C 1222.0714285714287,499.8571428571429 1379.0357142857142,475.92857142857144 1536,452 C 1536,452 1536,754 1536,754 Z" stroke="none" stroke-width="0" fill="url(#linear-gradient)" class="transition-all duration-300 ease-in-out delay-150" style="transform-origin: center center;"/><defs><linearGradient id="linear-gradient" x1="1" x2="0" y1="0.5" y2="0.5"><stop offset="0%" stop-color="#c81d1190"/><stop offset="100%" stop-color="#1c39bb90"/></linearGradient></defs><path transform="scale(1, 1)" d="M 0,754 V 0,678 C 89.32142857142858,638.0357142857142 178.64285714285717,598.0714285714286 317,600 C 455.35714285714283,601.9285714285714 642.75,645.7500000000001 781,642 C 919.25,638.2499999999999 1008.3571428571429,586.9285714285713 1126,585 C 1243.642857142857,583.0714285714287 1389.8214285714284,630.5357142857143 1536,678 C 1536,678 1536,754 1536,754 Z" stroke="none" stroke-width="0" fill="url(#linear-gradient)" class="transition-all duration-300 ease-in-out delay-150" style="transform-origin: center center;"/><defs><linearGradient id="linear-gradient" x1="1" x2="0" y1="0.5" y2="0.5"><stop offset="0%" stop-color="#c81d11ff"/><stop offset="100%" stop-color="#1c39bbff"/></linearGradient></defs><path transform="scale(1, 1)" d="M 0,754 V 0,1017 C 150.5,1052.2857142857142 301,1087.5714285714287 419,1068 C 537,1048.4285714285713 622.4999999999999,973.9999999999999 736,975 C 849.5000000000001,976.0000000000001 991,1052.4285714285713 1129,1072 C 1267,1091.5714285714287 1401.5,1054.2857142857142 1536,1017 C 1536,1017 1536,754 1536,754 Z" stroke="none" stroke-width="0" fill="url(#linear-gradient)" class="transition-all duration-300 ease-in-out delay-150" style="transform-origin: center center;"/></svg>